<svg xmlns="http://www.w3.org/2000/svg" width="1024" height="1024" viewBox="0 0 1024 1024"><path fill="#7b2ad1" d="M0 0h1024v1024H0V0"/><path fill="#fefefe" d="M423.85 143.211c33.756-2.778 66.217 20.816 74.197 53.669 2.902 11.947 2.207 24.794 2.257 37.053l.078 37.49-.19 139.196.127 276.439-.095 81.951c-.005 13.573.528 32.287-.314 45.509a68.4 68.4 0 0 1-9.727 31.509c-10.388 17.463-27.091 30.81-46.937 35.702a64.1 64.1 0 0 1-23.126 1.284c-28.444-3.378-43.551-24.361-62.231-43.004-15.605-15.574-17.226-18.067-40.116-18.374-9.913-.133-25.574-7.361-34.233-12.641-22.358-15.585-30.857-35.802-31.471-62.385-2.282-3.529-8.029-8.996-11.126-12.179-14.498-14.904-28.608-27.207-33.255-48.589-4.821-22.177-2.06-38.717 9.611-57.72-40.504-19.402-52.76-66.301-22.666-101.458 5.076-5.929 10.173-9.556 16.419-14.086-26.346-20.137-35.586-48.337-21.994-80.023 6.449-15.035 17.953-24.021 31.936-31.751-6.928-22.066-8.402-39.645 1.501-61.574a70.11 70.11 0 0 1 39.691-37.427 78.5 78.5 0 0 1-1.917-22.249c1.046-19.608 11.228-41.703 26.102-54.485 21.887-18.807 43.312-22.01 70.736-20.625a84.66 84.66 0 0 1 17.757-34.486c12.266-14.65 29.787-24.993 48.986-26.746"/><path fill="#7b2ad1" d="M427.268 161.2c26.461-1.304 51.285 19.436 54.449 46.085 1.311 11.043.492 23.701.626 34.939.275 23.092-.423 46.276.113 69.376-6.785-6.451-13.364-13.64-19.955-20.394-8.435-8.644-17.151-17.066-25.529-25.728.197-13.869.116-27.949.155-41.835 10.112-9.522 8.316-25.545-5.568-27.921a15.37 15.37 0 0 0-12.005 2.925c-8.909 6.781-7.166 16.715-.556 24.345.285 16.189-.304 32.687.178 48.844 2.838 3.956 11.894 12.83 15.757 16.772l28.802 29.425c5.077 5.217 14.411 14.688 18.686 20.33a7958 7958 0 0 0-.117 154.509c-10.991-10.393-21.017-22.348-31.908-32.908-3.946-3.827-8.246-8.172-11.715-12.383q.348-40.691.289-81.382c9.652-9.976 6.087-26.189-7.743-27.526-4.3-.38-8.57 1.008-11.824 3.845-8.377 7.243-5.597 16.953 1.098 24.127a5014 5014 0 0 1-.068 61.688c-8.536-10.297-20.53-21.175-29.695-31.191-1.429-1.561-5.538-5.15-7.364-5.478-6.186-1.11-15.268-.656-21.637-.662l-36.461-.046c-6.261-5.239-15.069-14.832-21.351-20.852-1.932-7.897-4.814-16.393-14.531-17.057-13.478-.726-22.683 16.312-12.339 26.145 4.835 4.597 10.317 4.615 16.456 4.475 2.57 3.798 20.41 21.862 24.422 24.693 5.639.849 16.107.637 22.07.661l37.437.059c10.385 11.774 29.849 31.797 41.388 42.776l-47.439.017c-5.837-6.705-13.358-9.592-21.343-4.511a14.7 14.7 0 0 0-6.586 9.992c-1.943 11.374 9.413 21.249 20.265 16.768 2.775-1.146 4.334-2.341 6.693-4.111l64.828-.11c14.248 16.392 34.012 33.21 46.906 50.164q.335 51.517.139 103.036c-12.741-14.543-30.784-32.958-44.395-46.854.122-11.349.065-22.64.295-34.004 10.199-10.587 5.145-27.327-9.273-27.267a16.04 16.04 0 0 0-11.648 5.232 14.77 14.77 0 0 0-3.968 10.761c.27 5.065 2.879 8.813 6.576 12.026.045 12.403-.444 27.304.178 39.482 3.249 4.813 12.144 13.536 16.48 18.38 14.642 16.359 31.848 32.548 45.718 49.383-.25 8.054-.011 17.148.024 25.278l-.075 79.949-.012 31.896c-.009 12.997.915 26.842-3.052 39.302-4.49 14.102-15.05 26.323-28.244 33.17-15.373 8.638-40.561 6.898-53.882-5.167-8.246-7.468-17.546-19.651-26.429-27.243-6.075-5.193-11.201-12.237-18.446-16.525-4.513-2.67-7.696-3.782-12.715-5.436q-.168-17.152-.052-34.306c3.13-3.7 5.809-8.218 5.985-13.181a13.97 13.97 0 0 0-4.096-10.406 15.71 15.71 0 0 0-11.754-4.565c-14.526.548-19.29 18.007-7.973 27.837l.007 33.112c-20.525-3.682-35.014-9.894-45.599-29.179-7.282-13.269-6.619-24.002-6.444-38.596 16.669-18.36 24.32-20.069 26.611-46.882 2.758-3.273 4.915-5.899 5.743-10.301a15 15 0 0 0-2.44-11.223 15.48 15.48 0 0 0-10.349-6.536c-9.228-1.377-16.089 5.201-17.004 14.05-.608 5.875 1.978 9.294 5.31 13.619 1.067 17.503-9.706 23.84-21.184 35.208-14.055-14.368-28.986-26.637-32.419-47.324-2.77-16.69 1.644-29.73 11.005-43.299q13.892.067 27.784-.053c7.03 5.692 16.008 6.658 22.094-.988a15.92 15.92 0 0 0 3.303-12.205c-1.987-13.964-19.373-17.116-27.695-4.898-18.2.268-30.782 2.35-46.05-9.577-32.883-25.685-18.392-77.22 22.465-83.116 4.369-.631 9.142.007 13.75-.582 7.047 4.263 14.819 5.742 21.163-.727a15.47 15.47 0 0 0 4.399-11.466c-.512-12.377-13.436-18.542-23.55-11.289-1.839 1.32-3.161 3.223-4.514 5.035-14.072 1.338-25.77-2.953-35.435-13.508a44.9 44.9 0 0 1-11.604-32.764c.945-17.728 12.594-33.798 29.127-40.231 3.818-1.15 8.321-.278 12.169-.796 11.382-1.535 15.331-17.608 7.296-25.19-4.379-4.132-8.557-4.164-14.105-4.208-4.991-21.712-1.312-40.648 14.564-56.813 18.252-18.583 42.564-15.099 66.422-14.787 7.551 7.367 17.194 8.188 23.518-1.172a16.5 16.5 0 0 0 2.548-12.428c-2.561-12.737-19.304-16.184-27-4.034a1042 1042 0 0 0-36.228-.128 82.3 82.3 0 0 1-1.231-13.634c-.009-16.882 6.467-32.529 18.712-44.101 18.505-17.488 34.515-17.923 57.83-17.85l-.017 13.391q-.794.656-1.548 1.358c-6.674 6.296-7.073 16.007-.397 22.302 10.548 9.948 27.233 2.008 25.602-12.618-.517-4.639-2.628-7.122-6.129-9.87-.13-21.458 1.732-37.549 16.157-54.984 10.282-12.428 23.106-19.058 39.098-20.361"/><path fill="#fefefe" d="M288.42 434.595c3.769.306 6.607 1.094 9.67 3.493a15.37 15.37 0 0 1 5.75 10.178c.618 5.324-.878 8.117-3.901 12.02 2.59 3.443 13.587 14.466 17.079 18.206l36.996 39.867c5.3 5.707 13.995 14.485 17.899 20.737 1.013 15.722.174 39.682.051 56.103 6.399 1.32 11.167 7.665 15.741 12.263l19.43 19.526q8.567 8.631 17.277 17.116c4.126 4.024 11.047 10.268 14.007 14.743.607 5.6.446 13.666.46 19.432l.047 29.497-.089 96.615c5.979 6.286 8.09 14.801 2.044 21.881a15.19 15.19 0 0 1-11.06 5.368c-9.234.35-15.771-5.834-15.456-15.052.212-6.234 2.063-8.805 6.2-13.04q.022-15.454.211-30.904c-4.638-6.125-10.351-11.531-15.58-17.225-14.493-15.779-32.153-31.007-43.85-48.915-3.314-5.072-5.755-11.178-8.046-16.724-4.365-2.255-7.418-4.806-9.204-9.574a15.1 15.1 0 0 1 .433-11.628c4.073-8.816 12.672-11.174 21.071-6.788 9.245 7.322 8.428 12.599 5.5 22.968 5.153 16.639 17.478 27.784 29.143 39.931 6.8 7.08 13.599 14.703 20.704 21.425l.143-79.716c-6.833-7.533-15.348-15.458-22.648-22.688l-30.946-30.956c-9.05.101-27.856.763-36.122-.407-3.752-2.459-12.046-11.535-15.612-15.151a1208 1208 0 0 0-23.119-22.772c-8.572-.65-16.954-4.283-17.345-14.048a16.22 16.22 0 0 1 4.524-11.915 15.38 15.38 0 0 1 11.053-4.803c9.874-.075 14.724 9.227 14.593 18.086 11 10.99 22.395 21.91 32.951 33.29l16.068-.033-.001-49.763c-13.812-14.083-27.328-29.9-40.966-44.303-9.517-10.051-19.226-20.95-28.536-31.211-2.868-4.305-9.429-11.259-10.602-16.132-2.428-10.092 4.998-16.966 14.038-18.997"/><path fill="#fefefe" d="M588.793 143.19c39.881-4.477 68.579 25.275 79.594 60.978 9.077-.093 19.291-.355 28.221.895a80.58 80.58 0 0 1 53.795 31.983c15 20.038 18.015 40.848 14.624 64.879 18.281 6.964 35.143 24.216 41.862 42.684 7.254 19.939 5.772 37.317-3.003 56.402 25.743 13.959 39.701 34.667 37.624 64.605-1.501 21.632-11.513 33.89-27.178 47.233 11.294 8.972 20.12 17.069 26.407 30.596a62.47 62.47 0 0 1 2.18 47.465c-5.98 16.361-18.983 29.963-34.735 37.26 7.455 14.653 12.26 26.504 11.562 43.352-.998 24.086-12.283 40.146-28.505 56.563-6.401 6.479-11.035 11.938-18.07 18.447-.143 23.743-6.431 38.732-22.689 55.527-10.973 10.508-30.009 19.948-44.959 20.232-20.919.398-24.886 2.474-39.47 17.781-17.849 18.734-32.916 38.095-60.586 41.9-38.464 5.29-73.854-24.991-79.103-62.665-1.442-11.727-.794-26.109-.811-38.059l-.025-64.464.135-204.08.122-196.555-.158-68.33c-.021-13.39-.593-27.782.566-41.057 2.929-33.536 29.777-59.633 62.6-63.572"/><path fill="#7b2ad1" d="M591.169 161.184c19.44-2.631 39.398 9.813 50.164 25.282 10.945 15.725 12.029 31.412 11.359 49.875-3.022 3.13-5.936 7.178-5.575 11.67 1.702 21.193 31.405 20 30.16-1.945-.226-3.969-3.469-7.791-6.563-10.152l.095-13.756c28.278-.461 50.536 3.031 67.492 28.588 9.901 14.922 12.72 29.296 9.182 46.882-11.168-.274-22.694-.138-33.889-.141-6.171-8.14-14.787-10.493-23.018-3.483a14.23 14.23 0 0 0-5.053 10.046 16.36 16.36 0 0 0 4.262 11.872c6.778 7.568 15.614 6.038 22.471-.44 19.886.265 39.859-3.368 56.768 8.757 8.567 6.143 15.796 14.577 20.188 24.124a50.72 50.72 0 0 1 1.544 38.945c-7.185.864-14.43 1.313-17.872 8.7a15.9 15.9 0 0 0-.454 12.41c3.346 8.512 12.258 11.018 20.36 7.814 7.108 2.821 13.682 6.356 19.176 12.184 23.1 24.504 12.287 68.152-21.97 74.812-3.653.71-10.211.134-14.203-.019-7.701-10.454-22.501-10.917-27.241 1.712a15.54 15.54 0 0 0 .441 12.201c4.902 10.366 14.32 10.558 23.24 5.486 16.979.393 29.249.175 42.151 13.111a48.57 48.57 0 0 1 14.492 34.8 45.17 45.17 0 0 1-13.612 31.376c-15.435 14.993-30.051 13.122-49.203 12.779-8.955-13.836-26.14-6.382-27.387 7.042a13.85 13.85 0 0 0 3.3 10.353c6.104 7.134 14.778 7.79 21.656 1.391l26.017.05c8.269 10.441 12.619 22.197 12.513 35.54-.204 25.69-16.177 39.193-32.814 55.82-11.729-13.287-22.239-17.494-22.392-36.031 3.345-3.901 6.135-7.359 5.992-12.895a14.42 14.42 0 0 0-4.672-10.19 15.91 15.91 0 0 0-11.783-4.129 14.6 14.6 0 0 0-10.137 5.145c-6.07 7.206-4.75 16.015 2.118 22.082 1.749 16.475 4.565 25.269 17.005 36.834 2.672 2.484 8.108 8.398 10.035 11.276.414 19.075.076 32.409-13.16 48.059-10.257 12.127-23.952 18.125-39.649 19.191l-.194-33.312c6.123-6.232 8.938-15.263 2.991-22.679a15.56 15.56 0 0 0-11.179-5.705c-14.789-.865-20.532 17.178-9.407 28.049l.032 35.098c-21.972 7.933-34.241 24.225-49.735 41.171-29.804 32.594-77.527 18.002-89.88-22.167-3.627-11.793-1.958-40.667-1.958-54.367l.002-84.425a1017 1017 0 0 0-.356-36.345c3.395-4.159 10.717-11.17 14.634-15.376l30.252-32.658c5.207-5.561 12.58-13.043 16.929-19.058.558-12.042.141-27.39.148-39.679 6.863-6.332 9.271-14.887 2.707-22.209-10.017-11.173-27.19-3.731-26.577 11.041.21 5.06 2.918 7.936 6.287 11.147l-.006 33.35c-14.519 15.276-29.841 31.246-44.01 46.716-.631-34.264.1-69.658-.27-104.198 8.753-9.379 18.251-18.659 27.127-28.106 5.777-6.149 13.584-14.994 19.407-20.514q32.715-.197 65.43-.026c3.295 2.91 6.469 5.112 10.988 5.559a13.96 13.96 0 0 0 10.661-3.6 16.36 16.36 0 0 0 5.4-11.613c.207-8.944-6.681-15.369-15.498-15.325-5.577.028-8.802 3.363-12.45 7.029l-48.359-.106c11.915-11.59 22.819-24.171 34.208-36.269 2.141-2.274 4.249-4.562 6.666-6.549 11.772.024 48.899.72 60.606-.824 2.932-.386 21.696-21.198 25.504-25.262 8.987.334 16.913-1.656 18.712-11.971a15.72 15.72 0 0 0-2.992-12.238c-8.339-10.956-26.223-5.456-26.589 10.536a1634 1634 0 0 0-20.999 21.617 5375 5375 0 0 0-60.233.164c-6.788 4.039-29.073 28.696-36.002 36.099.443-19.845.131-40.909.193-60.892 3.209-3.385 5.554-6.597 6.092-11.383.946-8.414-6.497-15.921-14.688-16.331a14.16 14.16 0 0 0-10.429 3.953c-8.142 7.725-6.201 16.452 1.033 23.676l.112 80.962c-13.754 14.813-30.675 30.546-43.604 45.71-.69-17.037-.088-37.784-.061-55.084l-.049-99.833c12.318-14.318 28.011-29.22 40.886-43.244 6.171-6.722 16.312-15.966 21.2-23.193.785-5.142.542-13.678.516-19.076l-.176-29.372c4.427-4.169 6.16-6.839 5.844-12.96-1.117-21.704-32.147-17.814-30.247 2.706.405 4.368 3.516 7.628 6.889 10.188l-.226 42.038c-3.893 4.815-11.165 11.889-15.666 16.555a3771 3771 0 0 1-28.88 29.769l-.156-66.296c-.07-10.106-.907-32.572.818-41.457a52.8 52.8 0 0 1 10.306-22.331c8.967-11.304 22.491-18.442 36.762-20.128"/><path fill="#fefefe" d="M735.471 434.594c4.041.06 7.549 1.4 10.536 4.165a15.6 15.6 0 0 1 5.049 11.234c.023 2.758-.861 5.679-2.401 7.937-8.388 12.297-19.342 23.465-29.303 34.482a2603 2603 0 0 1-48.777 53.327l.21 49.321 16.018-.021c9.781-10.405 23.07-23.002 32.07-33.586.264-4.389.963-9.277 3.827-12.749 5.149-6.241 14.464-7.195 20.663-2.074a15.7 15.7 0 0 1 5.599 11.084c.827 11.806-7.681 15.939-17.88 16.391-5.258 5.681-31.628 34.847-37.274 37.895-2.908 1.57-31.853 1.016-38.077 1.003-10.738 10.76-21.653 22.462-32.137 33.451-5.189 5.439-14.506 14.162-18.616 19.697-.351 26.274-.092 53.164-.129 79.489a2760 2760 0 0 1 24.37-25.907c11.277-11.904 19.105-18.394 23.622-34.715-5.038-7.873-4.364-13.812 1.039-21.118 3.34-2.778 6.41-4.684 10.799-4.484 11.967.545 19.029 14.834 11.733 24.537-1.626 2.161-3.328 3.404-5.346 5.033-6.65 19.219-14.798 27.592-28.3 42.362-12.474 13.646-25.541 26.761-37.968 40.403.357 10.009.037 22.383.025 32.552 3.973 2.482 6.095 6.367 6.223 10.967.592 21.36-29.491 21.65-30.239.995-.162-4.482 3.003-9.301 6.219-12.293l.004-91.442c.002-15.774-.138-31.839.155-47.62.21-2.083.251-5.244 1.478-6.981 3.125-4.425 7.477-8.403 11.205-12.329l25.833-26.811c6.384-6.581 12.546-13.874 19.334-19.967 2.702-2.425 4.104-2.935 7.629-3.659q-.04-28.059.381-56.114c2.297-3.909 10.402-12.08 13.887-15.877a4600 4600 0 0 1 34.388-37.228c2.6-2.781 23.245-24.326 22.54-25.979-5.369-12.594-2.636-22.268 11.611-25.371"/></svg>